:SAMPLES-PER-SECOND 30
:FULLY-SPECIFIED
:DEGREES
29
root  22.56088858 37.2639994 -55.81222294 -3.633990049 -8.859919548 2.244189978
lowerback  6.054769993 1.097800016 -0.2895419896
upperback  3.175519943 1.43817997 -0.1769199967
thorax  -0.1291639954 0.7148180008 -0.1059420034
lowerneck  -12.38980007 4.19133997 -1.020640016
upperneck  -3.845900059 5.693429947 -2.119299889
head  0.8882110119 2.808809996 -0.2395479977
lclavicle  0 -1.620099928e-014 -1.431250036e-014
lhumerus  -35.13710022 23.2343998 79.11029816
lradius  -3.235110024e-031 -1.415241029e-031 23.62759972
lwrist  -2.824900031e-030 -2.824900031e-030 16.37719917
lhand  -1.522208093e-030 -21.89089966 22.84740067
lfingers  90 7.125020027 -90
lthumb  90.61603193 7.755020578 85.4441456
rclavicle  0 -1.620099928e-014 -1.431250036e-014
rhumerus  -17.88310051 6.08220005 -88.32060242
rradius  3.18513289e-031 1.524392505e-031 25.57559967
rwrist  2.824900031e-030 -5.649800062e-030 -6.969039917
rhand  1.570731925e-030 -25.9428997 18.57430077
rfingers  -90 -7.125020027 -90
rthumb  -89.60083768 -33.59330664 -89.2785978
rfemur  -3.473550081 4.061299801 20.45100021
rtibia  -0 0 65.09470367
rfoot  -4.521983743e-032 12.55189991 -6.329219818
rtoes  -1.575397198 19.94038992 -85.38945295
lfemur  -17.52659988 -0.7470719814 -29.35029984
ltibia  -0 0 34.01409912
lfoot  -0 -14.15130043 10.59420013
ltoes  -3.695914299 -19.66929668 -100.8636129
30
root  22.54577847 37.32510965 -55.46622089 -3.778340101 -8.781590462 2.437809944
lowerback  6.124390125 1.061120033 -0.5711969733
upperback  3.243400097 1.374429941 -0.1474490017
thorax  -0.1051679999 0.6793239713 0.08533859998
lowerneck  -12.23149967 4.160970211 -1.051159978
upperneck  -4.202070236 5.647280216 -2.372489929
head  0.7536309958 2.78670001 -0.3234980106
lclavicle  0 -1.620099928e-014 -1.431250036e-014
lhumerus  -34.29309845 21.65209961 80.39150238
lradius  -3.205713567e-031 -1.480623033e-031 24.79080009
lwrist  0 -4.237350046e-030 17.52129936
lhand  -1.522208093e-030 -21.89089966 22.84740067
lfingers  90 7.125020027 -90
lthumb  90.61603193 7.755020578 85.4441456
rclavicle  0 -1.620099928e-014 -1.431250036e-014
rhumerus  -18.40699959 5.21446991 -88.165802
rradius  3.200746983e-031 1.491329201e-031 24.9822998
rwrist  2.824900031e-030 -2.824900031e-030 -6.123559952
rhand  1.570731925e-030 -25.9428997 18.57430077
rfingers  -90 -7.125020027 -90
rthumb  -89.60083768 -33.59330664 -89.2785978
rfemur  -4.87485981 4.1676898 20.15789986
rtibia  -0 0 66.7582016
rfoot  -0 10.83530045 -8.072719574
rtoes  -1.575397198 19.94038992 -85.38945295
lfemur  -16.58480072 -0.526745975 -29.64789963
ltibia  -0 0 33.64039993
lfoot  -0 -14.56659985 10.3579998
ltoes  -3.695914299 -19.66929668 -100.8636129
31
root  22.53511083 37.36777719 -55.11200071 -3.894589901 -8.728580475 2.310610056
lowerback  6.289969921 1.048740029 -0.4434910119
upperback  3.212049961 1.363919973 -0.08926899731
thorax  -0.2276680022 0.6753100157 0.07045800239
lowerneck  -11.86260033 4.167669773 -0.5870130062
upperneck  -4.539360046 5.584730148 -2.988169909
head  0.618596971 2.746049881 -0.6044120193
lclavicle  0 -1.620099928e-014 -1.431250036e-014
lhumerus  -33.67160034 20.33119965 81.21019745
lradius  -3.177368405e-031 -1.540510973e-031 25.86590004
lwrist  -2.824900031e-030 -7.062250077e-031 17.6515007
lhand  -1.522208093e-030 -21.89089966 22.84740067
lfingers  90 7.125020027 -90
lthumb  90.61603193 7.755020578 85.4441456
rclavicle  0 -1.620099928e-014 -1.431250036e-014
rhumerus  -19.12999916 4.316309929 -88.03510284
rradius  3.215218283e-031 1.459868292e-031 24.42040062
rwrist  2.824900031e-030 -0 -5.493619919
rhand  1.570731925e-030 -25.9428997 18.57430077
rfingers  -90 -7.125020027 -90
rthumb  -89.60083768 -33.59330664 -89.2785978
rfemur  -6.155620098 4.272799969 20.22550011
rtibia  -0 0 68.15509796
rfoot  -0 9.318619728 -9.609459877
rtoes  -1.575397198 19.94038992 -85.38945295
lfemur  -15.63199997 -0.4671820104 -29.63080025
ltibia  -0 0 33.25310135
lfoot  -0 -14.69979954 10.4677
ltoes  -3.695914299 -19.66929668 -100.8636129
32
root  22.5328896 37.42111086 -54.75089006 -3.918159962 -8.702420235 2.08630991
lowerback  6.197820187 1.027179956 -0.1071479991
upperback  3.277009964 1.354159951 -0.05286649987
thorax  -0.1028850004 0.673815012 -0.07740399987
lowerneck  -11.76229954 4.190199852 -0.4664410055
upperneck  -4.597469807 5.59720993 -3.133780003
head  0.5923759937 2.750040054 -0.6714709997
lclavicle  0 -1.620099928e-014 -1.431250036e-014
lhumerus  -32.8185997 19.50650024 81.81829834
lradius  -3.161932478e-031 -1.571950076e-031 26.43420029
lwrist  -2.824900031e-030 -2.118675023e-030 17.32349968
lhand  -1.522208093e-030 -21.89089966 22.84740067
lfingers  90 7.125020027 -90
lthumb  90.61603193 7.755020578 85.4441456
rclavicle  0 -1.620099928e-014 -1.431250036e-014
rhumerus  -19.69709969 3.650409937 -87.97720337
rradius  3.229928563e-031 1.427026809e-031 23.83650017
rwrist  2.824900031e-030 -0 -5.114409924
rhand  1.570731925e-030 -25.9428997 18.57430077
rfingers  -90 -7.125020027 -90
rthumb  -89.60083768 -33.59330664 -89.2785978
rfemur  -7.4927001 4.365580082 20.3757
rtibia  -0 0 69.33360291
rfoot  -0 7.855130196 -10.96479988
rtoes  -1.575397198 19.94038992 -85.38945295
lfemur  -14.71870041 -0.5422610044 -29.53440094
ltibia  -0 0 32.82590103
lfoot  -0 -14.83749962 10.75080013
ltoes  -3.695914299 -19.66929668 -100.8636129
